<?xml version="1.0" ?><!DOCTYPE svg  PUBLIC '-//W3C//DTD SVG 1.1//EN'  'http://www.w3.org/Graphics/SVG/1.1/DTD/svg11.dtd'><svg enable-background="new 0 0 512 512" id="Layer_1" version="1.1" viewBox="0 0 512 512" xml:space="preserve" xmlns="http://www.w3.org/2000/svg" xmlns:xlink="http://www.w3.org/1999/xlink"><circle cx="256" cy="256" id="ellipse" r="256"/><path d="M413.7,198.6c-1.1,0.3-237.3,64.3-237.3,64.3c-4.6,1.3-9.2,1.9-13.7,2  c-18.2,0.1-34.3-10-34.2-31.2c0.1-8.3,2.6-18.3,8.5-30.1C116.2,228,96.2,258.3,96,281c-0.1,8.5,2.6,16,9.2,21.6  c9.4,8.1,19.8,11,30.1,11c15.1,0,30-6.1,41.7-10.7c19.7-7.9,237.7-102.5,237.7-102.5C416.8,199.2,416.4,197.9,413.7,198.6z" fill="#FFFFFF" id="logo"/></svg>